<mxfile host="app.diagrams.net" modified="2022-06-22T16:33:40.052Z" agent="5.0 (Macintosh; Intel Mac OS X 10_15_7) AppleWebKit/537.36 (KHTML, like Gecko) Chrome/91.0.4472.114 Safari/537.36" etag="fBABIFRr-lz4AobDmZYq" version="20.0.2" type="github">
  <diagram id="aksHz4ZCzSkSAx99ui7y" name="Page-1">
    <mxGraphModel dx="1892" dy="2311" grid="1" gridSize="10" guides="1" tooltips="1" connect="1" arrows="1" fold="1" page="1" pageScale="1" pageWidth="827" pageHeight="1169" math="0" shadow="0">
      <root>
        <mxCell id="0" />
        <mxCell id="1" parent="0" />
        <mxCell id="iO-5Tbb7NvdSLimwvAHk-5" value="&lt;b&gt;&lt;font style=&quot;font-size: 25px&quot;&gt;Java Development Kit&lt;/font&gt;&lt;/b&gt;" style="rounded=0;whiteSpace=wrap;html=1;fillColor=#ffe6cc;strokeColor=#d79b00;align=right;verticalAlign=top;" parent="1" vertex="1">
          <mxGeometry x="20" y="253" width="1530" height="700" as="geometry" />
        </mxCell>
        <mxCell id="iO-5Tbb7NvdSLimwvAHk-9" style="edgeStyle=orthogonalEdgeStyle;rounded=0;orthogonalLoop=1;jettySize=auto;html=1;entryX=0.5;entryY=0;entryDx=0;entryDy=0;flowAnimation=1;strokeWidth=5;" parent="1" source="iO-5Tbb7NvdSLimwvAHk-2" target="iO-5Tbb7NvdSLimwvAHk-7" edge="1">
          <mxGeometry relative="1" as="geometry" />
        </mxCell>
        <mxCell id="iO-5Tbb7NvdSLimwvAHk-2" value="&lt;b&gt;&lt;font style=&quot;font-size: 15px&quot;&gt;.java&lt;/font&gt;&lt;/b&gt;" style="aspect=fixed;html=1;points=[];align=left;image;fontSize=12;image=img/lib/azure2/general/Files.svg;" parent="1" vertex="1">
          <mxGeometry x="100" y="120" width="82.28" height="90" as="geometry" />
        </mxCell>
        <mxCell id="iO-5Tbb7NvdSLimwvAHk-4" value="" style="edgeStyle=orthogonalEdgeStyle;rounded=0;orthogonalLoop=1;jettySize=auto;html=1;flowAnimation=1;strokeWidth=5;" parent="1" source="iO-5Tbb7NvdSLimwvAHk-3" target="iO-5Tbb7NvdSLimwvAHk-2" edge="1">
          <mxGeometry relative="1" as="geometry" />
        </mxCell>
        <mxCell id="iO-5Tbb7NvdSLimwvAHk-3" value="&lt;b&gt;&lt;font style=&quot;font-size: 21px&quot;&gt;STS&lt;/font&gt;&lt;/b&gt;" style="aspect=fixed;perimeter=ellipsePerimeter;html=1;align=left;shadow=0;dashed=0;fontColor=#4277BB;labelBackgroundColor=#ffffff;fontSize=14;spacingTop=3;image;image=img/lib/ibm/devops/code_editor.svg;fontStyle=0;horizontal=1;verticalAlign=bottom;labelPosition=right;verticalLabelPosition=top;" parent="1" vertex="1">
          <mxGeometry x="10" y="-40" width="100" height="100" as="geometry" />
        </mxCell>
        <mxCell id="iO-5Tbb7NvdSLimwvAHk-12" style="edgeStyle=orthogonalEdgeStyle;rounded=0;orthogonalLoop=1;jettySize=auto;html=1;entryX=0.383;entryY=1.05;entryDx=0;entryDy=0;entryPerimeter=0;flowAnimation=1;strokeWidth=5;" parent="1" source="iO-5Tbb7NvdSLimwvAHk-7" target="iO-5Tbb7NvdSLimwvAHk-10" edge="1">
          <mxGeometry relative="1" as="geometry" />
        </mxCell>
        <mxCell id="iO-5Tbb7NvdSLimwvAHk-7" value="&lt;b style=&quot;font-size: 17px&quot;&gt;Compiler&lt;br&gt;&lt;/b&gt;" style="shape=image;html=1;verticalAlign=top;verticalLabelPosition=bottom;labelBackgroundColor=#ffffff;imageAspect=0;aspect=fixed;image=https://cdn2.iconfinder.com/data/icons/outline-apps-and-programming/32/Applications_and_Programming_compile_compiler_script_code_config-128.png;fontSize=17;" parent="1" vertex="1">
          <mxGeometry x="40" y="300" width="170" height="170" as="geometry" />
        </mxCell>
        <mxCell id="iO-5Tbb7NvdSLimwvAHk-46" style="edgeStyle=orthogonalEdgeStyle;rounded=0;orthogonalLoop=1;jettySize=auto;html=1;entryX=0.204;entryY=0;entryDx=0;entryDy=0;entryPerimeter=0;fontSize=15;fontColor=none;exitX=1.004;exitY=0.59;exitDx=0;exitDy=0;exitPerimeter=0;flowAnimation=1;strokeWidth=5;" parent="1" source="iO-5Tbb7NvdSLimwvAHk-10" target="iO-5Tbb7NvdSLimwvAHk-17" edge="1">
          <mxGeometry relative="1" as="geometry" />
        </mxCell>
        <mxCell id="iO-5Tbb7NvdSLimwvAHk-10" value="&lt;div&gt;&lt;b&gt;&lt;font style=&quot;font-size: 15px&quot;&gt;.class&lt;/font&gt;&lt;/b&gt;&lt;/div&gt;" style="aspect=fixed;html=1;points=[];align=right;image;fontSize=12;image=img/lib/azure2/general/Files.svg;verticalAlign=top;" parent="1" vertex="1">
          <mxGeometry x="220" y="100" width="84.86" height="92.81" as="geometry" />
        </mxCell>
        <mxCell id="iO-5Tbb7NvdSLimwvAHk-17" value="&lt;b style=&quot;font-size: 15px;&quot;&gt;Class Loader Subsystem&lt;/b&gt;" style="rounded=1;whiteSpace=wrap;html=1;align=right;verticalAlign=top;fillColor=#dae8fc;strokeColor=#6c8ebf;gradientColor=#ffffff;gradientDirection=east;shadow=1;glass=0;sketch=0;fontSize=15;treeMoving=0;" parent="1" vertex="1">
          <mxGeometry x="280" y="270" width="490" height="150" as="geometry" />
        </mxCell>
        <mxCell id="iO-5Tbb7NvdSLimwvAHk-24" style="edgeStyle=orthogonalEdgeStyle;rounded=0;orthogonalLoop=1;jettySize=auto;html=1;fontColor=none;flowAnimation=1;strokeWidth=5;" parent="1" source="iO-5Tbb7NvdSLimwvAHk-18" target="iO-5Tbb7NvdSLimwvAHk-19" edge="1">
          <mxGeometry relative="1" as="geometry">
            <mxPoint x="480" y="355" as="targetPoint" />
          </mxGeometry>
        </mxCell>
        <mxCell id="iO-5Tbb7NvdSLimwvAHk-18" value="&lt;ol&gt;&lt;li style=&quot;text-align: left&quot;&gt;&lt;b&gt;Bootstrap Loader&lt;/b&gt;&lt;/li&gt;&lt;li style=&quot;text-align: left&quot;&gt;&lt;b&gt;External class loader&lt;/b&gt;&lt;/li&gt;&lt;li style=&quot;text-align: left&quot;&gt;&lt;b&gt;Application class loader&lt;/b&gt;&lt;/li&gt;&lt;/ol&gt;" style="text;html=1;strokeColor=none;fillColor=none;align=center;verticalAlign=middle;whiteSpace=wrap;rounded=0;fontColor=none;" parent="1" vertex="1">
          <mxGeometry x="265" y="290" width="150" height="110" as="geometry" />
        </mxCell>
        <mxCell id="iO-5Tbb7NvdSLimwvAHk-22" style="edgeStyle=orthogonalEdgeStyle;rounded=0;orthogonalLoop=1;jettySize=auto;html=1;entryX=0;entryY=0.5;entryDx=0;entryDy=0;fontColor=none;flowAnimation=1;strokeWidth=5;" parent="1" source="iO-5Tbb7NvdSLimwvAHk-19" target="iO-5Tbb7NvdSLimwvAHk-21" edge="1">
          <mxGeometry relative="1" as="geometry" />
        </mxCell>
        <mxCell id="iO-5Tbb7NvdSLimwvAHk-19" value="&lt;div style=&quot;text-align: left&quot;&gt;&lt;ol&gt;&lt;li&gt;&lt;span&gt;&lt;b&gt;Link&lt;/b&gt;&lt;/span&gt;&lt;/li&gt;&lt;li&gt;&lt;b&gt;Prepare&lt;/b&gt;&lt;/li&gt;&lt;li&gt;&lt;b&gt;Resolve&lt;/b&gt;&lt;/li&gt;&lt;/ol&gt;&lt;/div&gt;" style="text;html=1;strokeColor=none;fillColor=none;align=center;verticalAlign=middle;whiteSpace=wrap;rounded=0;fontColor=none;" parent="1" vertex="1">
          <mxGeometry x="510" y="300" width="120" height="110" as="geometry" />
        </mxCell>
        <mxCell id="iO-5Tbb7NvdSLimwvAHk-21" value="&lt;b&gt;Init&lt;/b&gt;" style="text;html=1;strokeColor=none;fillColor=none;align=center;verticalAlign=middle;whiteSpace=wrap;rounded=0;fontColor=none;" parent="1" vertex="1">
          <mxGeometry x="695" y="340" width="70" height="60" as="geometry" />
        </mxCell>
        <mxCell id="iO-5Tbb7NvdSLimwvAHk-26" value="&lt;b style=&quot;font-size: 21px;&quot;&gt;Execution Engine&lt;/b&gt;" style="verticalLabelPosition=top;html=1;verticalAlign=bottom;strokeWidth=1;align=left;outlineConnect=0;dashed=0;outlineConnect=0;shape=mxgraph.aws3d.searchEngine;fillColor=#ECECEC;strokeColor=#5E5E5E;aspect=fixed;rounded=1;shadow=1;glass=0;sketch=0;fontColor=none;fontSize=21;horizontal=1;labelPosition=center;container=0;dropTarget=0;collapsible=0;backgroundOutline=0;comic=0;" parent="1" vertex="1">
          <mxGeometry x="980" y="250" width="450" height="479.98" as="geometry" />
        </mxCell>
        <mxCell id="iO-5Tbb7NvdSLimwvAHk-27" value="&lt;b style=&quot;font-size: 20px;&quot;&gt;Runtime Data Area&lt;/b&gt;" style="pointerEvents=1;shadow=1;dashed=0;html=1;strokeColor=#6c8ebf;fillColor=#dae8fc;labelPosition=center;verticalLabelPosition=bottom;verticalAlign=top;align=left;outlineConnect=0;shape=mxgraph.veeam.ram;fontFamily=Helvetica;fontSize=20;fontColor=#000000;gradientColor=#ffffff;sketch=0;" parent="1" vertex="1">
          <mxGeometry x="100" y="590" width="805" height="200" as="geometry" />
        </mxCell>
        <mxCell id="iO-5Tbb7NvdSLimwvAHk-28" value="&lt;font size=&quot;1&quot;&gt;&lt;b style=&quot;font-size: 16px&quot;&gt;Method Area&lt;/b&gt;&lt;/font&gt;" style="sketch=0;outlineConnect=0;fontColor=#232F3E;gradientColor=none;fillColor=#FF9900;strokeColor=none;dashed=0;verticalLabelPosition=bottom;verticalAlign=top;align=center;html=1;fontSize=12;fontStyle=0;aspect=fixed;pointerEvents=1;shape=mxgraph.aws4.high_memory_instance;rounded=1;shadow=1;glass=0;" parent="1" vertex="1">
          <mxGeometry x="155" y="620" width="110" height="110" as="geometry" />
        </mxCell>
        <mxCell id="iO-5Tbb7NvdSLimwvAHk-33" value="Heap" style="sketch=0;html=1;aspect=fixed;strokeColor=none;shadow=0;align=center;verticalAlign=bottom;fillColor=#3B8DF1;shape=mxgraph.gcp2.memory_card;rounded=1;glass=0;fontSize=21;fontColor=none;" parent="1" vertex="1">
          <mxGeometry x="295" y="630" width="111.6" height="120" as="geometry" />
        </mxCell>
        <mxCell id="iO-5Tbb7NvdSLimwvAHk-34" value="&lt;b&gt;&lt;font style=&quot;font-size: 17px&quot;&gt;PC Registers&lt;/font&gt;&lt;/b&gt;" style="shape=image;html=1;verticalAlign=top;verticalLabelPosition=bottom;labelBackgroundColor=#ffffff;imageAspect=0;aspect=fixed;image=https://cdn1.iconfinder.com/data/icons/science-technology-outline-24-px/24/Computer_chip_integrated_circuit_memory_chip_microprocessor_processor_chip-128.png;rounded=1;shadow=1;glass=0;sketch=0;fontSize=16;fontColor=none;gradientColor=#ffffff;gradientDirection=east;" parent="1" vertex="1">
          <mxGeometry x="577" y="620" width="128" height="128" as="geometry" />
        </mxCell>
        <mxCell id="iO-5Tbb7NvdSLimwvAHk-35" value="&lt;b&gt;Java Stack&lt;/b&gt;" style="sketch=0;pointerEvents=1;shadow=0;dashed=0;html=1;strokeColor=none;fillColor=#005F4B;labelPosition=center;verticalLabelPosition=bottom;verticalAlign=top;align=center;outlineConnect=0;shape=mxgraph.veeam2.storage_stack;rounded=1;glass=0;fontSize=17;fontColor=none;" parent="1" vertex="1">
          <mxGeometry x="445" y="637" width="100" height="93" as="geometry" />
        </mxCell>
        <mxCell id="iO-5Tbb7NvdSLimwvAHk-36" value="&lt;b&gt;&lt;font style=&quot;font-size: 16px&quot;&gt;Native Method Stack&lt;/font&gt;&lt;/b&gt;" style="sketch=0;outlineConnect=0;fontColor=#232F3E;gradientColor=none;fillColor=#FF9900;strokeColor=none;dashed=0;verticalLabelPosition=bottom;verticalAlign=top;align=center;html=1;fontSize=12;fontStyle=0;aspect=fixed;pointerEvents=1;shape=mxgraph.aws4.high_memory_instance;rounded=1;shadow=1;glass=0;" parent="1" vertex="1">
          <mxGeometry x="745" y="620" width="98" height="98" as="geometry" />
        </mxCell>
        <mxCell id="iO-5Tbb7NvdSLimwvAHk-40" value="&lt;b&gt;&lt;font style=&quot;font-size: 17px&quot;&gt;Native Method Interface&lt;/font&gt;&lt;/b&gt;" style="outlineConnect=0;dashed=0;verticalLabelPosition=bottom;verticalAlign=top;align=center;html=1;shape=mxgraph.aws3.elastic_network_interface;fillColor=#F58534;gradientColor=none;rounded=1;shadow=1;glass=0;sketch=0;fontSize=16;fontColor=none;" parent="1" vertex="1">
          <mxGeometry x="870" y="760" width="190" height="160" as="geometry" />
        </mxCell>
        <mxCell id="iO-5Tbb7NvdSLimwvAHk-41" value="&lt;b&gt;&lt;font style=&quot;font-size: 18px&quot;&gt;Java Native Lib&lt;/font&gt;&lt;/b&gt;" style="sketch=0;pointerEvents=1;shadow=0;dashed=0;html=1;strokeColor=none;fillColor=#005F4B;labelPosition=center;verticalLabelPosition=bottom;verticalAlign=top;align=center;outlineConnect=0;shape=mxgraph.veeam2.tape_library;rounded=1;glass=0;fontSize=17;fontColor=none;" parent="1" vertex="1">
          <mxGeometry x="1380" y="680" width="140" height="240" as="geometry" />
        </mxCell>
        <mxCell id="iO-5Tbb7NvdSLimwvAHk-48" style="edgeStyle=orthogonalEdgeStyle;rounded=0;orthogonalLoop=1;jettySize=auto;html=1;entryX=0.204;entryY=0;entryDx=0;entryDy=0;entryPerimeter=0;fontSize=15;fontColor=none;exitX=0.337;exitY=1.04;exitDx=0;exitDy=0;exitPerimeter=0;flowAnimation=1;strokeWidth=5;endArrow=classic;endFill=1;startArrow=classic;startFill=1;" parent="1" source="iO-5Tbb7NvdSLimwvAHk-17" edge="1">
          <mxGeometry relative="1" as="geometry">
            <mxPoint x="429.9994399999999" y="480.0079000000005" as="sourcePoint" />
            <mxPoint x="494.7599999999996" y="595.25" as="targetPoint" />
          </mxGeometry>
        </mxCell>
        <mxCell id="iO-5Tbb7NvdSLimwvAHk-50" style="edgeStyle=orthogonalEdgeStyle;rounded=0;orthogonalLoop=1;jettySize=auto;html=1;fontSize=15;fontColor=none;flowAnimation=1;strokeWidth=5;endArrow=classic;endFill=1;startArrow=classic;startFill=1;" parent="1" source="iO-5Tbb7NvdSLimwvAHk-26" target="iO-5Tbb7NvdSLimwvAHk-27" edge="1">
          <mxGeometry relative="1" as="geometry">
            <mxPoint x="959.9999999999997" y="350.00000000000045" as="sourcePoint" />
            <mxPoint x="1019.6299999999998" y="519.25" as="targetPoint" />
          </mxGeometry>
        </mxCell>
        <mxCell id="iO-5Tbb7NvdSLimwvAHk-51" style="edgeStyle=orthogonalEdgeStyle;rounded=0;orthogonalLoop=1;jettySize=auto;html=1;fontSize=15;fontColor=none;flowAnimation=1;strokeWidth=5;endArrow=classic;endFill=1;startArrow=classic;startFill=1;entryX=0.5;entryY=0;entryDx=0;entryDy=0;entryPerimeter=0;" parent="1" source="iO-5Tbb7NvdSLimwvAHk-26" target="iO-5Tbb7NvdSLimwvAHk-40" edge="1">
          <mxGeometry relative="1" as="geometry">
            <mxPoint x="1280" y="540" as="sourcePoint" />
            <mxPoint x="1128.1" y="778.9999999999995" as="targetPoint" />
          </mxGeometry>
        </mxCell>
        <mxCell id="iO-5Tbb7NvdSLimwvAHk-52" style="edgeStyle=orthogonalEdgeStyle;rounded=0;orthogonalLoop=1;jettySize=auto;html=1;fontSize=15;fontColor=none;flowAnimation=1;strokeWidth=5;endArrow=classic;endFill=1;startArrow=classic;startFill=1;" parent="1" source="iO-5Tbb7NvdSLimwvAHk-40" target="iO-5Tbb7NvdSLimwvAHk-36" edge="1">
          <mxGeometry relative="1" as="geometry">
            <mxPoint x="1105" y="481" as="sourcePoint" />
            <mxPoint x="860" y="729.9999999999995" as="targetPoint" />
          </mxGeometry>
        </mxCell>
        <mxCell id="iO-5Tbb7NvdSLimwvAHk-53" style="edgeStyle=orthogonalEdgeStyle;rounded=0;orthogonalLoop=1;jettySize=auto;html=1;fontSize=15;fontColor=none;flowAnimation=1;strokeWidth=5;endArrow=classic;endFill=1;startArrow=classic;startFill=1;entryX=1;entryY=0.5;entryDx=0;entryDy=0;entryPerimeter=0;" parent="1" source="iO-5Tbb7NvdSLimwvAHk-41" target="iO-5Tbb7NvdSLimwvAHk-40" edge="1">
          <mxGeometry relative="1" as="geometry">
            <mxPoint x="1396.4999999999995" y="760" as="sourcePoint" />
            <mxPoint x="1230" y="948" as="targetPoint" />
          </mxGeometry>
        </mxCell>
        <mxCell id="iO-5Tbb7NvdSLimwvAHk-58" value="JIT Compiler&amp;nbsp;" style="sketch=0;html=1;aspect=fixed;strokeColor=none;shadow=0;align=center;verticalAlign=bottom;fillColor=#3B8DF1;shape=mxgraph.gcp2.gear_load;rounded=1;glass=0;comic=0;fontSize=21;fontColor=none;fontStyle=1" parent="1" vertex="1">
          <mxGeometry x="1191" y="528" width="100" height="92" as="geometry" />
        </mxCell>
        <mxCell id="iO-5Tbb7NvdSLimwvAHk-59" value="&lt;b&gt;GC&lt;/b&gt;" style="shape=image;html=1;verticalAlign=top;verticalLabelPosition=bottom;labelBackgroundColor=#ffffff;imageAspect=0;aspect=fixed;image=https://cdn4.iconfinder.com/data/icons/ios-web-user-interface-multi-circle-flat-vol-5/512/Delete_dustbin_empty_recycle_recycling_remove_trash-128.png;rounded=1;shadow=1;glass=0;comic=0;sketch=0;fontSize=21;fontColor=none;gradientColor=#ffffff;gradientDirection=east;rotation=-5;" parent="1" vertex="1">
          <mxGeometry x="1250" y="380" width="98" height="98" as="geometry" />
        </mxCell>
        <mxCell id="iO-5Tbb7NvdSLimwvAHk-61" value="&lt;b&gt;Interpreter&lt;br&gt;&lt;/b&gt;" style="sketch=0;html=1;aspect=fixed;strokeColor=none;shadow=0;align=center;verticalAlign=top;fillColor=#3B8DF1;shape=mxgraph.gcp2.gear;rounded=1;glass=0;comic=0;fontSize=21;fontColor=none;" parent="1" vertex="1">
          <mxGeometry x="1050" y="410" width="100" height="100" as="geometry" />
        </mxCell>
      </root>
    </mxGraphModel>
  </diagram>
</mxfile>
